<svg width="391" height="64" viewBox="0 0 391 64" class="img-responsive" xmlns="http://www.w3.org/2000/svg">
<path d="M113.246 49.792H106.544V21.312H113.246V25.088C115.034 22.336 117.97 20.608 121.928 20.608C128.886 20.608 132.908 25.216 132.908 32.64V49.792H126.205V33.92C126.205 29.504 124.035 26.816 119.885 26.816C115.864 26.816 113.246 29.888 113.246 34.752V49.792ZM137.824 37.504V21.312H144.526V37.12C144.526 41.6 146.697 44.288 150.463 44.288C154.23 44.288 156.4 41.6 156.4 37.12V21.312H163.039V37.504C163.039 45.696 158.315 50.432 150.399 50.432C142.547 50.496 137.824 45.696 137.824 37.504ZM165.082 21.312H172.232L179.828 41.088L187.488 21.312H194.447L182.765 49.792H176.828L165.082 21.312ZM221.513 43.072C219.152 47.552 214.747 50.432 208.682 50.432C200.064 50.432 193.936 44.288 193.936 35.52C193.936 27.008 200.192 20.608 208.363 20.608C216.662 20.608 222.471 27.008 222.471 35.52C222.471 36.032 222.471 36.736 222.407 37.568H200.575C200.894 41.664 204.533 44.8 208.746 44.8C212.449 44.8 214.364 43.008 215.96 40.512L221.513 43.072ZM215.832 32.704C215.385 28.928 212.385 26.112 208.235 26.112C204.214 26.112 201.086 29.44 200.639 32.704H215.832ZM232.813 49.792H226.11V21.312H232.813V25.088C234.408 22.336 237.026 20.608 240.92 20.608C245.005 20.608 248.006 22.592 249.538 25.92C251.07 23.168 254.262 20.608 258.986 20.608C265.561 20.608 269.327 25.152 269.327 32.256V49.728H262.624V33.6C262.624 29.44 260.709 26.816 257.198 26.816C253.56 26.816 251.198 29.76 251.134 34.432V49.792H244.431V33.792C244.431 29.376 242.516 26.752 239.005 26.752C235.302 26.752 232.94 29.76 232.94 34.624V49.792H232.813ZM277.434 40.384C278.392 43.008 280.562 44.736 283.116 44.736C285.223 44.736 286.946 43.776 286.946 41.792C286.946 40.192 285.989 39.424 283.69 38.72L280.243 37.632C275.456 36.096 273.03 33.344 273.03 29.376C273.03 24.064 277.498 20.672 282.797 20.672C287.457 20.672 291.287 23.168 293.138 27.136L287.776 30.016C286.691 27.776 284.967 26.24 282.861 26.24C280.945 26.24 279.413 27.2 279.413 28.864C279.413 30.208 280.435 31.232 282.605 31.936L285.989 33.024C291.287 34.816 293.457 37.568 293.457 41.344C293.457 47.168 288.606 50.496 283.052 50.496C277.754 50.496 273.668 47.68 272.072 43.264L277.434 40.384ZM303.544 49.792H296.841V10.688H303.544V25.088C305.331 22.336 308.268 20.608 312.225 20.608C319.184 20.608 323.205 25.216 323.205 32.64V49.792H316.503V33.92C316.503 29.504 314.332 26.816 310.183 26.816C306.161 26.816 303.544 29.888 303.544 34.752V49.792ZM356.975 35.52C356.975 43.904 350.528 50.432 341.846 50.432C333.164 50.432 326.716 43.84 326.716 35.52C326.716 27.136 333.164 20.608 341.846 20.608C350.591 20.608 356.975 27.2 356.975 35.52ZM333.419 35.52C333.419 40.384 337.122 44.288 341.846 44.288C346.57 44.288 350.272 40.384 350.272 35.52C350.272 30.656 346.57 26.752 341.846 26.752C337.122 26.752 333.419 30.656 333.419 35.52ZM367.508 21.312V25.408C369.615 22.464 373.19 20.672 377.147 20.672C384.999 20.672 391 27.072 391 35.584C391 43.968 384.999 50.496 377.147 50.496C373.19 50.496 369.615 48.896 367.508 45.888V60.416H360.869V21.312H367.508ZM375.743 26.752C370.955 26.752 367.253 30.72 367.253 35.584C367.253 40.448 370.955 44.416 375.743 44.416C380.531 44.416 384.233 40.448 384.233 35.584C384.233 30.72 380.595 26.752 375.743 26.752ZM56.7509 0C56.687 0 56.687 0 56.7509 0C48.3244 0 40.4087 3.264 34.4718 9.088C31.4715 7.808 28.152 7.104 24.7687 7.104C11.1076 7.104 0 18.304 0 32C0 45.696 11.1076 56.896 24.8325 56.896C28.152 56.896 31.4715 56.192 34.4718 54.912C40.2171 60.544 48.0691 64 56.687 64C74.306 64 88.6054 49.664 88.6054 32C88.6054 14.4 74.306 0 56.7509 0ZM56.687 56.896C43.026 56.896 31.8545 45.696 31.8545 32H24.7687C24.7687 38.272 26.5561 44.16 29.6841 49.088C28.0882 49.536 26.4284 49.792 24.7687 49.792C15.0016 49.792 7.02204 41.792 7.02204 32C7.02204 22.208 15.0016 14.208 24.7687 14.208C28.6627 14.208 32.3014 15.424 35.4294 17.792C39.9618 21.184 42.5153 26.368 42.5153 32H49.6011C49.6011 24.576 46.4093 17.664 40.7278 12.928C45.1964 9.216 50.814 7.104 56.687 7.104C70.3481 7.104 81.5195 18.304 81.5195 32C81.5195 45.696 70.4119 56.896 56.687 56.896Z" fill="currentColor"/>
</svg>
